<svg version="1.1" id="Layer_1" xmlns="http://www.w3.org/2000/svg" xmlns:xlink="http://www.w3.org/1999/xlink" x="0px" y="0px"
	 width="100%" viewBox="0 0 656 656" enable-background="new 0 0 656 656" xml:space="preserve">
<path fill="#000000" opacity="1.000000" stroke="none" 
	d="
M326.936035,101.773254 
	C340.041748,99.720947 340.041748,99.720947 357.503357,105.573120 
	C357.643860,105.868332 357.950562,106.201729 357.894958,106.455872 
	C356.329285,113.613899 356.321564,113.617325 363.430969,116.227478 
	C368.588776,118.121117 373.739349,120.035538 378.915680,121.877388 
	C386.685883,124.642212 392.154602,121.331917 393.690308,112.957680 
	C394.050293,110.994499 394.715057,108.969513 394.525330,107.043343 
	C393.650482,98.164085 398.703796,91.504608 402.757080,84.512077 
	C405.526306,79.734673 408.857666,79.782822 411.830170,84.576225 
	C414.195831,88.391045 416.464783,92.320572 418.242371,96.430267 
	C420.074707,100.666542 422.809509,103.252953 427.443207,103.650192 
	C431.754272,104.019768 433.516052,106.265961 433.231964,110.625084 
	C432.913269,115.515228 434.717194,120.131248 435.705139,124.846077 
	C436.831940,130.223801 440.244904,133.545135 445.262482,135.467621 
	C448.681427,136.777588 452.042297,138.238312 455.440643,139.602951 
	C458.072845,140.659943 460.312805,141.913239 459.524719,145.414551 
	C459.095856,147.319946 460.437164,148.155136 461.952179,148.614029 
	C465.713470,149.753281 467.991943,152.328461 469.875031,155.695282 
	C473.697021,162.528732 479.318573,167.761963 485.959351,171.782242 
	C490.546936,174.559509 492.343079,178.099213 492.382446,183.620972 
	C492.474792,196.594818 493.180176,209.576050 494.018372,222.529648 
	C494.918549,236.440125 487.542450,246.531570 479.161377,256.212708 
	C476.552765,259.225891 473.528381,261.879089 470.695038,264.697754 
	C465.981201,269.387299 462.598633,274.762787 461.447449,281.468018 
	C460.798218,285.249542 459.191193,288.759979 457.611481,292.267181 
	C455.066986,297.916443 450.558380,301.007965 444.781372,302.415955 
	C440.605804,303.433624 439.437744,305.698425 440.781494,309.739410 
	C445.729919,324.620880 441.507294,338.625488 436.561432,352.563751 
	C435.336884,356.014648 432.920898,357.958588 429.617767,359.192902 
	C413.284973,365.295868 409.608795,363.780518 402.328552,348.093018 
	C397.189880,337.020111 393.883179,325.310669 390.410736,313.678162 
	C389.220795,309.692078 387.051819,308.052582 383.208679,307.441925 
	C374.008453,305.980072 368.183533,299.928223 366.810730,290.706299 
	C366.468903,288.410187 366.290161,286.083160 364.523132,283.705200 
	C359.721497,284.711029 355.663269,287.728180 351.178741,289.674866 
	C345.665283,292.068207 345.293091,291.955170 343.150299,286.525421 
	C342.159393,284.014557 341.980438,280.938873 338.239960,280.393982 
	C336.937805,280.204315 336.688690,278.332458 336.376099,277.054413 
	C335.136688,271.986542 332.522827,267.517426 330.451813,262.801147 
	C328.394226,258.115326 324.971771,256.449005 320.267853,255.223312 
	C311.030640,252.816391 302.481201,253.415115 293.578278,257.078278 
	C280.772125,262.347473 266.499969,264.487061 256.813660,275.900726 
	C254.977524,278.064301 251.805695,278.025543 249.291718,278.005707 
	C240.302292,277.934967 232.832535,281.656952 225.891663,286.725922 
	C221.903976,289.638123 217.930450,290.636475 213.380844,288.398834 
	C213.086639,288.254120 212.748322,288.153534 212.422485,288.125275 
	C200.552231,287.095642 194.286453,279.006958 188.902802,269.664703 
	C187.551941,267.320557 187.307236,265.434204 189.157516,263.345703 
	C199.323105,251.871216 196.681961,238.653229 193.973785,225.587814 
	C192.860275,220.215698 190.305634,215.226791 187.563538,210.454224 
	C185.982620,207.702621 185.889023,205.393143 188.628143,203.533691 
	C191.485214,201.594147 192.210785,198.875809 191.851135,195.703613 
	C190.640610,185.026566 194.838867,178.437943 205.201630,174.338699 
	C217.091003,169.635544 228.122452,162.800323 239.900665,157.766571 
	C247.795761,154.392410 253.286987,149.249100 256.589417,141.613724 
	C258.535889,137.113373 261.673492,134.328476 266.368469,133.172516 
	C272.251160,131.724106 275.381042,126.534363 279.831726,123.149063 
	C283.266449,120.536537 286.410034,117.515121 289.513947,114.501305 
	C292.482819,111.618614 294.808624,112.039886 297.440094,115.051064 
	C302.268707,120.576439 304.051086,120.436996 306.867126,114.021164 
	C310.681793,105.330093 317.966156,102.670296 326.936035,101.773254 
M450.336273,191.210434 
	C448.345093,192.417664 446.251678,193.486481 444.386078,194.863815 
	C441.411957,197.059570 437.981567,197.586121 434.492981,197.889740 
	C432.460449,198.066620 430.074097,197.890701 429.643188,195.453781 
	C429.151184,192.671494 431.746124,192.403259 433.636383,192.073944 
	C435.938202,191.672928 438.421631,191.692673 440.252747,190.122177 
	C451.641541,180.354462 464.037079,181.084457 476.936340,186.383057 
	C478.010498,186.824280 479.140808,187.209900 480.281372,187.385635 
	C481.442902,187.564606 482.808868,188.421097 484.229797,186.276108 
	C475.388214,184.238434 466.873413,182.292725 458.369232,180.301453 
	C456.757568,179.924072 455.138885,179.484726 453.615723,178.851852 
	C452.498810,178.387787 451.764069,177.401657 451.983734,176.052704 
	C452.242767,174.461929 453.380402,173.800919 454.837433,173.828156 
	C456.156250,173.852783 457.478394,174.094833 458.784729,174.323242 
	C466.346680,175.645325 473.904419,176.991714 481.463562,178.329895 
	C469.929169,175.066940 458.238556,172.659988 446.549988,170.243057 
	C444.381958,169.794754 441.768402,169.934433 441.340881,165.753235 
	C451.375244,165.266891 460.619049,169.076035 470.571350,169.804047 
	C468.545685,166.526535 466.111389,165.132065 462.612976,165.071045 
	C454.625580,164.931763 446.602661,164.936813 438.667938,164.144470 
	C428.756470,163.154724 420.212952,164.860062 412.636566,172.028732 
	C409.405884,175.085571 410.426849,177.129440 411.934875,179.668030 
	C412.881989,181.262405 414.981720,180.551056 416.567230,180.891586 
	C420.720581,181.783661 425.314026,180.559341 429.051056,183.363983 
	C430.265717,184.275650 431.355072,185.485336 430.297241,187.187103 
	C429.429504,188.583084 427.989685,188.770340 426.828125,187.893127 
	C423.961365,185.728073 420.885406,186.408661 417.722076,186.664810 
	C414.483612,186.927032 410.376953,188.260315 408.378540,185.085587 
	C405.758362,180.923111 404.402161,175.977493 403.884125,170.977478 
	C403.750122,169.683914 404.944214,168.943726 406.139099,168.648849 
	C410.341614,167.611694 413.565002,164.837814 416.749664,162.243240 
	C420.299713,159.350952 423.983002,159.049316 428.361267,159.200806 
	C439.584015,159.589111 450.829132,159.330429 462.045135,159.330429 
	C461.889862,159.139252 461.706146,158.701599 461.501923,158.691849 
	C448.926086,158.089951 436.350677,157.466019 423.769348,157.003708 
	C421.402924,156.916733 419.091980,156.851013 419.050476,153.983215 
	C419.012085,151.326843 421.318298,150.481323 423.585907,150.291901 
	C424.501984,150.215393 425.466095,150.850677 426.423126,151.106934 
	C434.628937,153.303940 442.925842,152.890228 451.259918,152.174393 
	C450.710327,151.554657 450.124023,151.269394 449.523560,151.235626 
	C434.800293,150.407288 420.636505,146.578323 406.358582,143.319168 
	C403.189453,142.595764 401.456879,141.064667 400.705444,137.891953 
	C399.594635,133.201584 398.156036,128.588577 396.839081,123.947746 
	C396.709747,123.491997 396.455475,123.071724 396.066681,122.206612 
	C394.928802,124.068382 393.556366,124.610847 393.364807,126.239944 
	C394.617554,127.596886 396.489227,128.694855 396.326752,131.018250 
	C395.714783,139.771042 398.973114,145.517624 408.297211,146.844299 
	C409.968964,147.082153 411.481445,148.410477 410.713959,150.470947 
	C409.999420,152.389374 408.199585,152.615234 406.503113,152.008804 
	C402.585876,150.608475 398.698242,149.113556 394.858063,147.514191 
	C392.630402,146.586395 391.800232,144.698990 391.701508,142.297836 
	C391.582520,139.403503 391.374939,136.476166 389.938721,133.658539 
	C387.498138,135.311035 388.910034,137.231598 389.093933,138.834305 
	C389.512024,142.478470 389.133148,145.763977 386.549316,148.622177 
	C385.509949,149.771912 384.672150,151.162506 382.893127,150.336334 
	C381.166534,149.534500 381.274445,148.005142 381.792603,146.470795 
	C382.005310,145.840820 382.476288,145.245255 382.511200,144.616364 
	C382.791718,139.560974 383.859772,134.389755 380.665710,129.706833 
	C378.904114,133.625626 378.619568,137.661575 379.828979,141.610199 
	C380.447998,143.631134 380.554657,145.169022 378.915436,146.518295 
	C377.696411,147.521667 376.235107,148.009735 374.736877,147.211365 
	C372.682495,146.116623 373.180237,144.364319 373.393402,142.437820 
	C373.850067,138.310837 374.022827,134.138718 374.057922,129.982941 
	C374.089050,126.296288 372.019928,125.195610 368.979462,127.322716 
	C366.258301,129.226395 363.802399,131.507874 361.217041,133.607391 
	C359.169678,135.270004 358.630035,137.093536 360.759705,139.040085 
	C363.321960,141.382004 363.286285,144.332565 362.824707,147.364578 
	C362.591949,148.893494 362.026062,150.424179 360.054291,150.239059 
	C358.438568,150.087341 357.969818,148.780899 357.834930,147.360428 
	C357.680328,145.731827 358.130280,143.818802 356.552460,142.730103 
	C353.754730,140.799683 353.751038,138.077774 354.303528,135.150818 
	C352.145447,134.544357 349.317841,135.655228 348.626251,132.827408 
	C347.940369,130.022858 350.465302,129.344833 352.281433,128.226517 
	C354.860535,126.638420 357.191711,124.750511 358.590576,121.886284 
	C353.124298,125.014633 347.772461,128.228806 343.477478,132.884247 
	C342.173096,134.298096 340.825836,135.520294 338.740082,134.715347 
	C337.755249,134.335281 337.091919,133.474411 337.030823,132.421310 
	C336.899902,130.164352 338.547058,129.353424 340.284668,128.540283 
	C344.940369,126.361580 348.405304,122.694725 351.823517,118.861435 
	C347.624146,120.658188 343.968262,123.237717 340.382050,125.910751 
	C338.344788,127.429268 336.363159,129.022827 333.598358,128.215866 
	C329.563293,127.038147 326.151001,128.583588 322.658173,130.342743 
	C316.487701,133.450516 310.669128,137.615387 303.063416,136.519302 
	C301.248810,136.257812 299.159973,137.155823 297.518372,138.461960 
	C297.866760,139.794586 299.645477,140.912247 297.866394,142.440811 
	C292.109833,147.386703 281.377808,146.483597 278.861145,139.975601 
	C278.116455,138.049835 277.550598,135.617813 273.603851,134.343109 
	C276.335602,139.319092 275.076782,145.104111 281.196228,146.634964 
	C286.208710,147.888870 286.490356,148.625107 283.008850,152.999512 
	C283.008850,152.999512 283.036957,152.982574 282.264832,153.001785 
	C281.154510,152.733749 280.024963,152.527161 278.937042,152.187393 
	C273.228851,150.404587 271.639526,145.363541 269.753662,140.546021 
	C269.248901,139.256561 268.520447,137.957916 266.825928,138.698532 
	C265.300385,139.365311 266.040100,140.685669 266.344513,141.750473 
	C266.617737,142.706146 266.993042,143.648193 267.443817,144.535004 
	C270.433380,150.416504 268.640137,155.434845 264.702545,160.085861 
	C259.781189,165.898819 252.300720,166.071625 245.887955,168.585129 
	C244.360794,169.183685 242.382202,169.837601 241.627838,167.640060 
	C240.859741,165.402603 242.896332,164.839218 244.440536,164.328766 
	C248.391998,163.022568 252.432678,161.975021 256.348663,160.575043 
	C263.412170,158.049789 266.039429,149.810165 261.057526,144.535309 
	C257.402374,152.499252 251.725449,158.231277 243.762161,161.765579 
	C237.764740,164.427399 234.591705,172.573898 236.433212,179.565002 
	C238.868423,179.403702 239.875504,177.530899 240.388458,175.683380 
	C241.534393,171.556015 244.478531,169.766479 248.287415,169.031021 
	C257.385742,167.274216 265.585144,164.140396 270.350220,155.389847 
	C270.573364,154.980057 271.039032,154.652542 271.462524,154.410477 
	C273.052032,153.501907 274.730713,153.257889 275.945709,154.862595 
	C277.075623,156.354935 276.348694,157.851669 274.999908,158.743973 
	C271.883118,160.806000 269.577362,163.671844 267.169006,166.410355 
	C264.761780,169.147583 261.875671,170.860535 258.406525,171.846634 
	C254.724899,172.893112 251.094406,174.123871 247.457733,175.323090 
	C243.146851,176.744614 244.031708,182.076126 240.568741,184.156418 
	C244.572800,182.996323 247.211655,180.440308 249.245193,176.986313 
	C250.329834,175.144043 252.273682,174.129608 254.327530,175.757980 
	C256.024292,177.103226 255.543320,178.764984 254.159622,180.059738 
	C248.540100,185.317902 242.254959,189.762573 235.245819,192.805481 
	C231.443039,194.456406 226.934631,193.926361 223.414047,191.200897 
	C219.855270,188.445862 220.195023,184.692322 221.333145,180.727020 
	C222.122192,177.977829 223.408142,175.234299 222.976242,171.069260 
	C218.576920,175.743668 217.975006,180.917389 217.284317,185.774124 
	C216.494278,191.329269 218.639755,193.193878 224.126190,194.707230 
	C230.042053,196.339035 235.227524,195.748947 240.011093,191.788422 
	C241.410706,190.629623 243.057678,189.751495 244.651138,188.850632 
	C245.949554,188.116547 247.469437,187.194687 248.547119,189.041397 
	C249.405502,190.512283 248.309128,191.604492 247.215042,192.392807 
	C239.605499,197.875656 232.237671,203.265244 221.715652,199.398087 
	C214.888535,196.888947 212.027359,194.405045 212.284195,187.123611 
	C212.359055,185.001053 213.315430,182.923370 213.605957,180.789490 
	C213.782089,179.495941 215.253357,178.082458 213.587234,176.739273 
	C210.939392,177.175217 211.279190,179.241135 211.188019,180.997681 
	C210.998093,184.656540 211.134979,188.353760 210.647354,191.969101 
	C210.244522,194.955933 211.261703,196.743805 213.784744,198.029556 
	C219.667664,201.027542 226.223770,201.603485 232.487488,203.220947 
	C233.147522,203.391373 234.249527,203.008408 234.742126,202.494568 
	C241.629944,195.309525 252.837967,195.594193 259.554901,188.102432 
	C260.447296,187.107101 261.946869,186.542084 263.060516,187.926300 
	C264.396118,189.586380 263.124969,190.778503 261.892334,191.634476 
	C258.211212,194.190735 254.811768,197.154892 250.546692,198.856857 
	C245.454971,200.888672 240.273163,202.808868 236.166122,206.709351 
	C234.755951,208.048599 232.993744,208.365112 231.043182,207.908936 
	C225.532394,206.620178 219.957397,205.581085 214.494400,204.119553 
	C208.488235,202.512711 205.818237,198.718277 205.818771,192.548431 
	C205.819092,188.910934 205.818817,185.273438 205.818817,181.635941 
	C205.296692,181.646835 204.774551,181.657715 204.252426,181.668594 
	C204.252426,185.773026 204.657974,189.926865 204.165131,193.971222 
	C203.236282,201.593872 206.920593,204.513489 214.268021,207.054169 
	C218.654129,208.570847 223.379837,209.097946 227.781494,210.579193 
	C232.474304,212.158432 236.172607,211.681915 239.059326,207.358856 
	C241.459427,203.764572 245.332535,202.611084 249.239349,201.584274 
	C250.592255,201.228699 252.015472,200.937500 252.635696,202.586624 
	C253.138062,203.922348 252.182465,204.992081 251.074310,205.325455 
	C245.488388,207.006042 242.073868,211.462173 238.132202,215.233047 
	C236.136642,217.142166 234.098999,217.717026 231.337830,216.866348 
	C224.023041,214.612793 216.564484,212.817368 209.280334,210.475220 
	C201.792801,208.067688 198.787170,203.479904 198.852356,195.641205 
	C198.878448,192.502228 198.856644,189.362854 198.856644,186.223648 
	C197.346664,193.166840 199.972168,200.764496 194.414429,207.223389 
	C204.065262,210.112350 213.976685,211.354263 222.004501,215.913071 
	C232.360428,221.793991 239.404236,218.504288 246.697586,211.759445 
	C250.035065,208.672943 253.506668,207.929657 258.083923,209.223419 
	C263.367676,210.716843 271.993103,203.723343 271.904236,198.619553 
	C271.729156,188.563797 276.212189,180.813187 283.574158,174.418427 
	C291.327698,167.683563 299.074005,160.940353 306.823456,154.200775 
	C300.002899,156.878845 292.978546,159.087296 288.773163,165.710281 
	C287.448303,167.796783 285.609619,169.573608 283.900299,171.392746 
	C282.984955,172.366913 281.776825,173.341202 280.466003,172.059891 
	C279.403748,171.021561 280.126770,169.851715 280.818176,168.914200 
	C284.948181,163.314194 288.524811,157.254410 295.393921,154.247589 
	C299.496155,152.451904 303.382263,150.102722 307.207855,147.746399 
	C317.294556,141.533707 327.302521,135.768555 339.959106,136.189667 
	C344.485352,136.340256 347.575714,137.360718 350.412567,140.428741 
	C351.364594,141.458389 352.279327,142.525452 351.327362,143.924652 
	C350.202515,145.577988 348.549072,145.244720 347.424377,144.149780 
	C343.878021,140.697205 339.778442,141.542984 334.701874,141.952057 
	C337.676239,143.276825 340.206360,143.176483 341.846436,145.053680 
	C342.765472,146.105545 343.543488,147.270569 342.519165,148.608932 
	C341.710297,149.665756 340.385132,149.925323 339.396057,149.102844 
	C334.783752,145.267441 330.778625,146.673004 326.352631,149.756195 
	C324.001068,151.394363 320.742859,151.732666 317.892090,152.652084 
	C315.982727,153.267868 314.156769,153.979950 312.608887,155.364334 
	C303.047760,163.915619 293.311249,172.276993 283.927765,181.017883 
	C279.744354,184.914825 276.659851,190.052277 276.768372,195.874939 
	C276.924744,204.262970 265.353210,216.171234 257.200958,214.669693 
	C253.368973,213.963882 250.425766,214.634338 247.406906,216.768143 
	C244.281189,218.977493 240.978806,220.936142 237.764206,223.020676 
	C231.124237,227.326401 231.130341,227.327148 225.233826,222.125046 
	C224.738434,221.687988 224.214752,221.177292 223.613007,220.982407 
	C214.808823,218.131149 205.989136,215.327820 196.879471,212.419312 
	C196.758987,216.229858 199.060455,216.582001 201.086792,217.150085 
	C206.694992,218.722290 212.300507,220.308502 217.938263,221.768814 
	C220.702179,222.484741 222.674332,224.063660 224.140610,226.438538 
	C225.101318,227.994553 225.647339,229.567322 223.918289,230.856781 
	C222.433533,231.964081 221.196686,231.188965 219.975830,230.046799 
	C214.692215,225.103546 207.803986,225.111938 200.979050,223.299255 
	C201.719742,226.664505 204.060547,226.860306 205.805191,227.213104 
	C213.273926,228.723328 218.451019,232.684982 220.797211,240.083359 
	C221.044128,240.862030 221.456909,241.657944 221.998718,242.260727 
	C223.974686,244.459030 226.752289,246.474304 229.376495,245.224915 
	C233.816849,243.110870 238.328842,240.433075 240.732025,235.868240 
	C242.911072,231.729095 245.997955,229.239914 250.346542,227.817520 
	C260.633331,224.452759 270.891235,220.994934 281.110840,217.431442 
	C287.659882,215.147842 289.803101,211.965195 289.826782,205.197647 
	C289.834381,203.031387 289.826324,200.864990 289.810944,198.698761 
	C289.756470,191.029160 292.258392,184.728546 299.243408,180.731094 
	C305.864197,176.942108 311.483002,172.135727 314.883240,165.091721 
	C315.773438,163.247604 317.195953,161.825394 319.182587,161.106491 
	C325.609375,158.780838 331.974182,156.110962 338.911102,159.552383 
	C340.670044,160.425003 342.811615,160.499207 344.632629,161.278519 
	C352.877777,164.807205 366.134491,156.147842 365.563812,147.229233 
	C365.290039,142.950714 366.668579,138.670792 365.482819,134.343781 
	C364.967041,132.461502 366.391052,131.272232 367.951752,130.451874 
	C369.228485,129.780777 370.537354,129.739334 371.711334,130.660233 
	C372.720276,131.451660 373.250366,132.620834 372.605347,133.756241 
	C370.580963,137.319565 371.662048,141.300278 370.885925,144.984756 
	C370.084625,148.788803 371.529755,153.267502 368.139587,156.335266 
	C359.128815,164.489059 349.660767,170.598526 336.707489,164.637238 
	C332.391144,162.650818 327.439911,161.442612 323.003021,165.000595 
	C323.003021,165.000595 323.037964,164.969330 322.349854,165.145081 
	C319.589050,165.738495 318.247986,167.812897 317.172058,170.142883 
	C315.239197,174.328735 312.593933,177.933945 308.373596,180.010208 
	C297.656433,185.282761 293.390137,193.503647 294.964172,205.550873 
	C295.939911,213.018814 290.686005,219.238388 283.478058,221.539810 
	C273.322754,224.782303 263.176941,228.055115 253.005844,231.247238 
	C249.345016,232.396179 246.979111,234.475189 244.930115,237.975510 
	C241.431122,243.952896 235.107620,247.242706 229.536453,251.122025 
	C228.444702,251.882248 226.976242,251.234070 225.650970,250.990067 
	C218.991623,249.763931 216.399460,244.597977 213.793060,239.252777 
	C211.478821,234.506775 207.149002,232.798813 201.315521,234.962112 
	C214.299927,239.076355 213.880219,252.280350 220.677155,260.107910 
	C227.798218,258.614105 233.235611,254.979614 237.876114,249.687836 
	C241.930359,245.064621 246.548126,240.931290 250.978134,236.644760 
	C252.159424,235.501740 253.415100,234.187149 254.891968,233.637756 
	C265.660706,229.631836 276.484772,225.773224 287.318878,221.945999 
	C288.895081,221.389206 290.867523,221.068695 291.625183,223.115311 
	C292.423492,225.271713 290.600037,226.014236 288.993439,226.574219 
	C283.488922,228.492828 278.050415,230.672989 272.432892,232.179718 
	C261.852417,235.017624 252.730911,239.986069 245.881592,248.710449 
	C244.125092,250.947769 241.286636,252.309631 240.019760,255.292038 
	C243.885178,256.312012 245.613800,253.677216 247.775497,252.018433 
	C251.701263,249.006012 254.391891,244.475113 259.423218,242.806427 
	C270.482758,239.138428 281.493927,235.323715 292.567993,231.700958 
	C295.341980,230.793488 296.954071,229.380997 297.851288,226.429352 
	C299.885895,219.735901 305.252930,217.805878 311.218872,221.221436 
	C312.953583,222.214554 314.712646,223.168045 316.414459,224.214706 
	C317.694275,225.001831 319.239716,225.921005 318.402496,227.706345 
	C317.517456,229.593658 315.721588,229.495117 314.080750,228.734955 
	C311.816315,227.685898 309.598328,226.528458 307.406464,225.333115 
	C305.142853,224.098679 303.452271,224.688736 302.625641,227.003601 
	C301.750854,229.453247 303.853455,229.753281 305.424347,230.082550 
	C308.512634,230.729843 311.621368,231.493484 314.752991,231.679062 
	C323.233063,232.181610 328.722717,236.186295 331.230652,244.421127 
	C332.009399,246.978180 332.614563,249.893494 335.313965,251.447311 
	C342.565796,245.838943 348.160187,239.928925 343.227234,230.046539 
	C342.358124,228.305359 342.082642,226.214874 341.795471,224.247406 
	C341.224945,220.338425 339.380890,218.172256 335.216583,217.443481 
	C331.541107,216.800247 327.560883,216.253403 324.794891,213.131195 
	C322.310913,210.327301 319.291229,209.273666 315.472137,209.359055 
	C310.822601,209.462997 307.924438,206.142975 307.786438,201.440491 
	C307.556274,193.596451 314.349884,185.122513 322.884796,182.720551 
	C324.523315,182.259399 326.732941,180.852509 327.645599,183.345184 
	C328.542389,185.794418 326.039551,186.393921 324.432129,186.891541 
	C320.401947,188.139206 317.500854,190.714157 315.041443,193.974289 
	C313.196869,196.419479 312.473663,199.208893 313.740967,201.941849 
	C314.928772,204.503464 317.615570,204.864960 320.223267,204.715179 
	C322.669220,204.574707 324.941681,204.930099 326.500214,207.010666 
	C330.000885,211.683929 334.998291,213.156326 340.450592,213.680359 
	C342.694641,213.896057 344.852203,214.316757 345.803680,216.660034 
	C348.968079,224.453354 349.541534,233.160660 355.860901,239.902618 
	C358.344543,242.552277 356.480530,247.574722 354.908752,251.382370 
	C353.303986,255.269852 351.012054,258.914551 350.051147,263.773529 
	C353.515747,262.114502 356.300446,260.628601 359.202789,259.426880 
	C363.590790,257.609985 366.262848,259.184174 367.126129,263.838379 
	C367.701904,266.942596 368.153717,270.086029 368.988342,273.121887 
	C369.997772,276.793762 370.614502,281.365967 374.334869,282.917297 
	C383.529297,286.751221 393.040192,290.219818 402.735626,283.658752 
	C401.614288,281.489777 399.570557,280.585571 397.724884,279.579895 
	C386.021057,273.202606 376.830750,263.673218 366.853058,255.130890 
	C365.134430,253.659515 364.379059,251.672897 363.680328,249.581940 
	C360.091400,238.842361 356.370697,228.146744 352.801178,217.400818 
	C351.241333,212.704910 348.325714,210.148727 343.218475,210.393372 
	C341.390137,210.480957 339.513367,210.154724 337.729523,210.448044 
	C334.015869,211.058655 331.636993,209.599075 330.148407,206.298401 
	C329.054138,203.872070 327.545746,202.546768 324.493103,202.406006 
	C321.208801,202.254517 318.988312,200.024048 319.422424,196.301590 
	C319.930969,191.940460 325.644043,188.176010 329.924591,189.267181 
	C333.830719,190.262894 335.442413,193.238342 334.234436,197.223694 
	C332.915558,201.574936 335.663910,205.568802 340.200256,205.787796 
	C342.027679,205.876007 343.864777,205.755722 345.697571,205.741913 
	C352.498413,205.690659 356.167389,208.279556 358.303284,214.690277 
	C361.883240,225.435455 365.475342,236.176834 368.979279,246.946854 
	C369.721771,249.229080 370.796631,251.161682 372.565247,252.816315 
	C383.432617,262.983459 395.029663,272.126190 408.362061,278.919189 
	C410.372467,279.943512 412.127136,280.611969 414.457092,279.676025 
	C425.428497,275.268707 436.469208,271.034210 447.470825,266.701630 
	C448.962646,266.114136 450.633820,265.521484 450.198029,263.265961 
	C448.136597,262.766327 446.600647,264.015015 444.968567,264.666382 
	C435.688629,268.369904 426.457031,272.194336 417.188416,275.926514 
	C414.892120,276.851166 412.563110,278.004150 410.056122,276.374390 
	C405.168976,273.197357 400.234039,270.092957 395.378021,266.869415 
	C394.005920,265.958557 392.373444,264.722748 393.572815,262.827545 
	C394.719177,261.016083 396.481995,261.705292 397.994751,262.593079 
	C401.873047,264.869049 405.822845,267.040863 409.567505,269.520935 
	C412.216156,271.275116 414.588837,271.315735 417.487671,270.110168 
	C427.172882,266.082306 436.968536,262.320679 446.690063,258.378693 
	C448.784058,257.529572 451.097809,256.978333 452.838257,255.021393 
	C450.935455,254.301590 449.484192,255.300369 448.012390,255.776154 
	C441.832794,257.773804 435.703094,259.926514 429.514740,261.895630 
	C427.364349,262.579895 424.610016,263.801025 423.448151,260.767059 
	C422.217133,257.552673 425.166901,257.003937 427.327087,256.229309 
	C437.986633,252.406845 448.639771,248.565659 459.325134,244.816391 
	C462.495361,243.704025 465.214966,242.199570 467.210327,238.144363 
	C459.364899,241.525162 452.383362,244.572601 445.369659,247.544144 
	C439.390289,250.077469 433.392273,252.569473 427.361328,254.976562 
	C425.805603,255.597488 423.903076,255.999268 423.049927,253.940216 
	C422.191559,251.868744 423.288513,250.446320 425.223724,249.590591 
	C426.595062,248.984177 427.947968,248.335815 429.321960,247.735687 
	C444.125885,241.269547 458.929993,234.803848 473.740417,228.352722 
	C476.199402,227.281631 478.726715,226.316925 478.931305,222.440491 
	C474.044525,223.731995 468.401703,222.547562 465.056366,226.796677 
	C462.638336,229.868011 459.915741,231.797302 456.515625,233.280029 
	C447.663330,237.140411 438.632233,240.676224 430.095581,245.149033 
	C422.677673,249.035645 415.332794,249.080383 407.440308,247.816772 
	C403.497070,247.185440 400.899170,245.436295 398.288696,242.581818 
	C392.596985,236.358185 388.148529,228.708237 380.201660,224.909668 
	C375.166473,222.502869 374.197845,219.044647 375.287659,213.939255 
	C376.958954,206.109711 376.532349,198.947113 368.614441,193.942703 
	C359.880859,188.422729 351.810791,181.512268 340.310333,186.603134 
	C337.312439,187.930191 334.267456,186.966553 332.543976,183.904816 
	C330.811951,180.827896 332.517212,178.466736 334.726929,176.459900 
	C337.378815,174.051498 340.553925,173.382065 344.006592,174.000305 
	C344.006592,174.000305 343.979919,173.978699 344.462402,174.474167 
	C347.231293,179.908798 352.471741,181.398270 357.761200,182.819443 
	C358.563812,183.035080 359.327698,183.465118 360.138519,183.568619 
	C367.267944,184.478714 371.517975,189.892349 376.894226,193.732864 
	C384.252563,198.989288 381.551910,205.694031 381.171112,212.256302 
	C381.113220,213.253830 381.269958,214.302216 381.016357,215.243240 
	C379.970612,219.123199 382.054840,220.870392 385.368561,221.634796 
	C389.852722,222.669159 393.024017,225.370026 395.700867,228.960632 
	C397.787811,231.759888 400.168579,234.338242 402.370850,237.053665 
	C407.378082,243.227615 417.361450,245.839508 424.500732,242.603668 
	C434.661774,237.998245 444.750214,233.232697 454.874969,228.547028 
	C456.874115,227.621841 458.732300,226.538452 459.747040,224.463745 
	C461.119476,221.657684 463.585571,220.524521 466.439392,219.760834 
	C471.101898,218.513123 475.721893,217.103943 480.344696,215.712524 
	C481.340820,215.412689 482.712372,215.361893 482.517273,213.352951 
	C480.048401,214.013672 477.535583,214.321259 475.352539,215.337311 
	C468.177399,218.676758 458.491364,216.724426 453.840271,225.524445 
	C453.407257,226.343643 451.833923,226.596634 450.758087,227.033859 
	C441.045166,230.981064 431.344360,234.959122 421.601166,238.830383 
	C413.597321,242.010574 406.717163,240.017151 401.711975,233.176224 
	C400.139374,231.026886 398.755981,228.736710 397.143341,226.619629 
	C395.354889,224.271744 394.067352,221.521851 391.098999,220.152008 
	C383.391388,216.595139 383.423279,216.524353 385.083954,208.152802 
	C385.440155,206.357346 385.743958,204.548676 386.181488,202.773102 
	C386.550262,201.276642 387.014435,199.685623 385.755188,198.529037 
	C380.111603,193.345642 376.211426,186.348267 367.816742,184.076019 
	C362.839966,182.728943 357.893280,178.915100 356.486328,173.732681 
	C355.522766,170.183548 360.727966,168.795349 363.143372,166.426697 
	C366.717743,162.921509 369.073608,167.274399 372.329712,168.596634 
	C375.192719,172.624634 380.166809,172.783585 384.245819,175.618408 
	C386.183014,177.886826 387.870636,180.444290 390.102386,182.371613 
	C398.066071,189.248917 402.840240,197.059952 398.880127,207.980637 
	C398.122375,210.070282 399.029907,211.726334 401.047394,212.341583 
	C406.328674,213.952164 409.066956,218.153564 411.430206,222.552872 
	C413.434235,226.283524 416.572021,227.821228 420.089386,226.439987 
	C430.568329,222.324997 442.691254,221.001465 449.377228,210.003815 
	C451.260529,206.906006 453.954346,205.634964 457.866425,206.463806 
	C461.553040,207.244858 464.853912,205.774567 467.589111,202.790268 
	C464.966217,199.948273 462.675995,201.217819 460.240509,202.454086 
	C456.168762,204.520935 452.021057,204.737305 448.851013,201.010529 
	C445.478729,197.046005 448.480042,193.958649 451.700439,190.768646 
	C455.320587,189.463196 459.430023,187.477188 462.425110,190.946869 
	C468.435211,197.909332 476.548950,195.382584 484.264008,197.482178 
	C483.209808,194.641098 481.321716,194.737045 479.858521,194.280487 
	C473.509094,192.299255 467.067963,190.595154 460.778595,188.444016 
	C456.758575,187.069077 453.671448,187.911469 450.336273,191.210434 
M314.857330,120.665695 
	C316.157745,120.355896 317.244049,120.604965 317.578796,122.048027 
	C317.904846,123.453362 316.714172,124.047401 315.878387,124.840424 
	C311.287537,129.196365 305.043396,129.467270 299.545502,131.602966 
	C293.956604,133.774002 291.189270,132.226425 290.768036,126.112793 
	C290.686493,124.929367 291.432800,123.483269 289.584076,122.242317 
	C289.227142,124.603531 288.462891,126.730408 288.703247,128.736954 
	C289.090240,131.968124 290.566345,135.923019 294.465424,134.507019 
	C303.458221,131.241165 313.617981,131.905579 321.834290,126.031975 
	C324.335938,124.243622 327.417572,122.120155 330.576141,122.841423 
	C338.625275,124.679436 341.942810,117.945709 347.133728,114.631111 
	C345.656342,114.940224 344.221832,115.519707 343.237946,116.535591 
	C338.982422,120.929550 333.743256,122.450630 327.825287,122.180153 
	C326.173248,122.104652 323.630463,123.487106 323.320862,120.733032 
	C323.003601,117.910965 325.710724,117.840683 327.620483,117.884010 
	C334.782440,118.046516 340.247101,114.825500 344.938873,109.773552 
	C338.076965,104.241707 330.598511,103.911110 319.543854,108.929436 
	C323.528015,108.280975 326.795288,107.736763 330.067169,107.221672 
	C331.833679,106.943573 334.173126,106.109756 334.665955,108.582146 
	C335.159393,111.057411 332.634888,111.210350 330.923828,111.618538 
	C329.476105,111.963913 327.967804,112.060112 326.484009,112.248390 
	C322.555786,112.746841 318.626343,113.235443 314.697388,113.727966 
	C316.274445,114.369263 317.714264,114.060608 319.167542,113.971283 
	C320.724762,113.875565 322.961975,112.955467 323.437927,115.171410 
	C323.982513,117.707031 321.633759,117.844437 319.826935,118.155785 
	C317.043213,118.635460 313.520996,118.235550 311.626221,119.800224 
	C306.810150,123.777267 301.637482,125.082077 295.677795,124.000870 
	C295.400757,126.786385 296.466461,128.556458 298.674957,127.236069 
	C303.568573,124.310341 309.827515,124.920792 314.857330,120.665695 
M431.100586,227.650330 
	C428.498688,228.760544 425.938446,229.983917 423.287201,230.960083 
	C414.745819,234.104919 410.546631,232.784698 406.058441,225.071075 
	C403.717407,221.047623 401.053436,217.672562 396.562988,216.005997 
	C393.188690,214.753662 391.714935,211.978439 392.982239,208.848892 
	C396.819336,199.373489 392.727417,192.646835 386.100189,186.514694 
	C384.769012,185.282928 383.715027,183.740005 382.597229,182.291168 
	C378.213898,176.609726 371.001099,175.963577 365.323914,172.587036 
	C365.222168,172.526535 364.831512,172.951767 364.403168,173.284286 
	C364.484772,176.860703 366.896606,178.617050 369.989410,179.018478 
	C375.570801,179.742935 378.855316,183.470108 382.740997,186.950348 
	C390.011139,193.461914 393.895264,200.660095 390.896210,210.497208 
	C390.209015,212.751175 390.823822,214.634232 393.034271,215.403015 
	C399.904724,217.792419 403.607361,223.358582 406.662628,229.279617 
	C409.444824,234.671478 413.477234,236.337646 420.593445,233.600311 
	C429.127777,230.317505 437.420563,226.411789 445.894196,222.963181 
	C448.818634,221.772980 451.144592,220.199677 452.456268,217.269791 
	C453.880035,214.089523 456.248596,213.389114 459.731140,213.566483 
	C468.571320,214.016663 475.718018,208.771286 483.600433,205.917084 
	C480.901215,205.994797 478.432312,206.824768 475.931183,207.542557 
	C470.702454,209.043167 465.809784,212.204315 460.073059,211.255981 
	C456.388580,210.646927 453.879150,211.976868 452.253387,215.109833 
	C450.123871,219.213470 446.656708,221.526688 442.461517,223.083252 
	C438.876221,224.413498 435.362122,225.935547 431.100586,227.650330 
M412.371796,139.134888 
	C418.194336,140.506424 423.974609,142.109253 429.851471,143.183533 
	C435.565735,144.228088 441.358368,145.196960 447.235657,144.103714 
	C442.044617,141.683990 437.542694,136.522812 430.910004,140.574753 
	C429.299225,141.558777 427.343506,140.352707 425.608368,139.825058 
	C421.631531,138.615753 417.694855,137.266953 413.693298,136.148727 
	C410.668152,135.303360 408.871613,133.766281 408.405853,130.409149 
	C407.401672,123.171791 406.048492,115.983101 404.860168,108.770874 
	C404.564789,106.978348 404.542694,105.026741 401.712372,104.916084 
	C400.440765,108.226967 399.904633,111.468735 400.887787,115.038589 
	C402.521088,120.969246 403.980255,126.954636 405.285400,132.966339 
	C406.060486,136.536469 407.954956,138.565918 412.371796,139.134888 
M430.978485,132.914597 
	C428.696289,131.301971 425.994476,131.138901 423.373871,130.865051 
	C419.404388,130.450211 417.328247,128.663589 417.669891,124.406975 
	C417.868500,121.932739 417.468170,119.412933 417.630707,116.932854 
	C418.311371,106.545082 411.961914,99.063622 407.344910,90.297188 
	C404.941223,92.624954 403.785370,94.913147 402.383575,97.808105 
	C409.119324,100.200462 410.913330,105.502846 411.342651,111.890678 
	C411.664398,116.678444 412.691772,121.423141 413.490570,126.172630 
	C413.881104,128.494690 414.440491,130.703979 417.244080,131.477219 
	C420.922241,132.491653 424.541290,133.720825 428.183563,134.864716 
	C429.649506,135.325104 431.192871,135.991623 430.978485,132.914597 
M410.728302,310.392517 
	C406.813110,310.871735 402.897919,311.350952 398.940094,311.835388 
	C398.505829,314.847931 399.722931,317.258148 400.384674,319.800201 
	C401.480591,324.010040 403.688385,324.884308 408.084991,324.330383 
	C417.135925,323.190063 418.398376,315.201782 423.308533,309.785339 
	C418.752075,308.566864 415.243042,310.332092 410.728302,310.392517 
M414.324677,340.610321 
	C420.766510,339.941681 426.510925,338.406586 427.021820,330.281128 
	C424.361938,331.316650 423.988800,335.089966 420.635651,335.529755 
	C418.966888,333.007416 419.080536,330.709106 420.962311,328.322998 
	C423.946075,324.539520 426.790161,320.646210 429.749329,316.842926 
	C431.294128,314.857483 432.440674,312.821533 431.649384,309.845032 
	C423.434998,317.646698 420.716797,331.740570 405.857971,330.307983 
	C406.968719,338.057068 408.672394,340.216400 414.324677,340.610321 
M438.030701,280.496643 
	C441.627716,279.179138 445.733551,278.558380 447.554260,273.081329 
	C437.095673,276.860413 427.468170,280.324554 418.322662,285.160522 
	C424.915009,284.749390 431.076538,282.641815 438.030701,280.496643 
M213.840866,265.102386 
	C216.298019,263.665985 214.869217,261.989288 214.053406,260.451538 
	C211.336136,255.329742 208.578415,250.228806 205.770859,245.156006 
	C205.173340,244.076385 204.712784,242.609940 201.952362,243.094589 
	C203.523468,251.709290 208.279221,258.525269 213.840866,265.102386 
M229.842300,179.441498 
	C230.601334,175.678497 231.360382,171.915497 232.119415,168.152481 
	C228.506500,171.718918 227.971527,176.311066 226.868134,180.655380 
	C225.309067,186.793869 227.233566,188.657669 233.811279,187.442245 
	C232.354309,185.062592 229.656143,183.407059 229.842300,179.441498 
M423.156525,114.715233 
	C423.211334,117.204506 423.145966,119.703796 423.352386,122.180435 
	C423.593262,125.070946 425.152374,126.143730 428.618408,125.118652 
	C426.098450,119.828094 428.228516,113.681000 424.621765,107.883728 
	C422.836853,110.544777 423.234528,112.234390 423.156525,114.715233 
M203.913513,262.326752 
	C202.962708,260.654999 202.011902,258.983246 200.873169,256.981049 
	C199.298828,259.263763 197.975098,261.183105 196.551407,263.247375 
	C199.451050,265.019653 202.148575,265.815399 205.556000,265.971497 
	C204.987747,264.642700 204.611908,263.763855 203.913513,262.326752 
M281.944305,129.179779 
	C279.956757,134.056381 284.999542,140.232910 291.563904,140.313553 
	C285.862213,138.474640 284.264587,133.836700 281.944305,129.179779 
M454.558990,198.246841 
	C456.580688,198.986603 458.158661,198.599808 458.587372,196.291321 
	C458.791992,195.189545 457.931488,194.354340 456.827148,194.473495 
	C454.947723,194.676224 453.256714,195.274109 454.558990,198.246841 
M323.322327,144.391602 
	C322.802185,145.086090 321.349152,144.981018 321.612030,146.515152 
	C324.748322,146.279510 327.172699,144.776154 329.605591,142.644073 
	C327.152405,141.856049 325.477631,142.855804 323.322327,144.391602 
z"/>
<path fill="#000000" opacity="1.000000" stroke="none" 
	d="
M109.195160,490.758606 
	C104.662415,483.507477 99.641747,476.925598 97.374100,468.634644 
	C154.723831,555.710449 234.395935,604.381653 339.323303,604.496094 
	C444.256531,604.610596 523.785706,555.833923 581.225769,468.329193 
	C582.233826,471.339172 580.564392,472.973297 579.623718,474.635315 
	C556.781860,514.990784 525.900513,547.735840 486.754578,572.662292 
	C451.166534,595.323181 412.346832,609.113281 370.524292,613.904907 
	C341.590271,617.219849 312.658508,616.091797 284.082825,609.938110 
	C213.743347,594.790649 157.656326,557.754761 115.307816,499.721924 
	C113.248177,496.899445 111.358902,493.952667 109.195160,490.758606 
z"/>
<path fill="#000000" opacity="1.000000" stroke="none" 
	d="
M594.863892,211.269897 
	C604.575928,231.885788 611.800476,252.930847 615.686035,275.040497 
	C616.662842,280.598480 617.551025,286.216705 617.253479,291.904938 
	C617.139099,294.092194 618.031738,297.325592 614.882568,297.647797 
	C612.023987,297.940277 611.546448,294.745667 610.958862,292.611084 
	C608.396973,283.303619 606.134888,273.913361 603.550720,264.612396 
	C584.422363,195.764191 544.955994,141.665085 485.408508,102.246338 
	C455.364227,82.357872 422.717743,68.545158 387.426361,61.081825 
	C385.658569,60.707985 383.834015,60.370975 382.556793,58.836002 
	C398.195923,52.299667 472.728729,81.003563 508.090607,106.677292 
	C545.867981,134.104675 574.257080,169.178940 594.863892,211.269897 
z"/>
<path fill="#000000" opacity="1.000000" stroke="none" 
	d="
M144.912933,128.895752 
	C170.486786,105.708405 198.896591,87.673134 230.600220,74.893150 
	C247.326218,68.150780 264.505280,62.903160 282.291229,59.771069 
	C284.014282,59.467644 285.864807,58.664257 287.750732,60.363255 
	C286.708069,62.111526 284.807373,62.362541 283.194916,62.723656 
	C241.302658,72.105591 203.867447,90.623718 170.679413,117.745316 
	C136.020813,146.068665 109.543083,180.682999 91.124207,221.513245 
	C81.420845,243.023285 74.647743,265.443390 69.304070,288.356079 
	C68.738487,290.781219 67.938126,293.160400 67.106300,295.511230 
	C66.656136,296.783478 65.888245,297.994019 64.217346,297.729797 
	C62.407677,297.443634 61.863586,296.148743 61.785297,294.475769 
	C61.479599,287.943298 62.295528,281.479431 63.455864,275.106384 
	C72.281601,226.631607 94.069801,184.551544 126.604683,147.823715 
	C132.351791,141.335953 138.209686,134.951599 144.912933,128.895752 
z"/>
<path fill="#000000" opacity="1.000000" stroke="none" 
	d="
M443.114838,399.666046 
	C447.904694,399.047302 449.415955,400.840515 449.332611,405.250458 
	C449.090424,418.061768 449.327271,430.881714 449.149628,443.695099 
	C449.114441,446.234192 450.763123,449.665131 447.053650,451.130890 
	C442.743103,452.834106 436.599579,451.018524 434.269745,447.537933 
	C428.345032,438.687073 422.461151,429.808899 416.546448,420.951263 
	C415.479828,419.353973 414.344116,417.802856 412.200592,416.559296 
	C412.200592,426.302612 412.030670,436.050232 412.276459,445.787323 
	C412.389496,450.265686 410.625519,451.607910 406.380096,451.432098 
	C403.106140,451.296509 401.980438,449.994659 401.998871,446.895325 
	C402.083984,432.588257 402.096497,418.280701 402.089417,403.973297 
	C402.087891,400.868866 403.376251,399.789307 406.587433,399.545502 
	C412.131409,399.124573 415.758606,400.780792 418.785645,405.774567 
	C424.722137,415.567993 431.413330,424.903931 439.020844,434.297607 
	C439.020844,430.453491 439.025299,426.609344 439.019806,422.765198 
	C439.011017,416.606995 439.010223,410.448700 438.975983,404.290619 
	C438.961761,401.733185 439.315460,399.530212 443.114838,399.666046 
z"/>
<path fill="#000000" opacity="1.000000" stroke="none" 
	d="
M371.289337,410.743774 
	C376.831696,418.997162 382.184814,426.944153 387.537903,434.891113 
	C387.921600,434.765198 388.305328,434.639282 388.689026,434.513336 
	C388.689026,424.601410 388.821838,414.686798 388.622925,404.778809 
	C388.544525,400.874146 389.872162,399.488922 393.811035,399.575012 
	C397.350616,399.652344 398.388611,400.992523 398.356110,404.363586 
	C398.227753,417.687592 398.377014,431.014374 398.235077,444.338104 
	C398.209808,446.707916 399.751678,449.936462 396.033997,451.171356 
	C391.673889,452.619629 386.044464,451.112732 383.954681,447.991058 
	C377.562469,438.442596 371.198730,428.875092 364.811249,419.323456 
	C364.082733,418.234070 363.273987,417.198364 362.263672,415.809509 
	C360.935364,417.714142 361.378845,419.542145 361.365051,421.209320 
	C361.293457,429.870209 361.218658,438.533356 361.351685,447.192566 
	C361.404602,450.638519 359.729767,451.389648 356.731445,451.389282 
	C353.668365,451.388916 351.630859,450.932190 351.662231,447.108429 
	C351.779572,432.784821 351.744904,418.459351 351.657959,404.135223 
	C351.639038,401.021729 352.825073,400.126495 355.951904,399.532593 
	C365.151367,397.785217 367.251526,405.175659 371.289337,410.743774 
z"/>
<path fill="#000000" opacity="1.000000" stroke="none" 
	d="
M141.228882,440.883087 
	C138.213699,449.056915 131.959137,451.781555 124.302559,452.296875 
	C122.148178,452.441833 119.976372,452.340088 117.812637,452.331848 
	C101.096558,452.268372 93.893631,445.391632 92.898468,428.581177 
	C92.611000,423.725159 93.111099,418.927246 94.156693,414.209259 
	C95.902740,406.330688 100.585808,401.063660 108.655853,399.547913 
	C117.230469,397.937439 125.868141,397.543152 134.137833,401.070404 
	C136.025391,401.875519 139.435959,402.847565 137.422806,405.871216 
	C135.818314,408.281097 134.439819,412.379395 129.811951,410.293823 
	C123.782806,407.576782 117.528358,407.711945 111.267570,409.288757 
	C107.359192,410.273102 105.093384,412.925781 104.191780,416.867767 
	C102.869308,422.649994 102.875290,428.396088 104.190323,434.176910 
	C105.046021,437.938507 107.251701,440.429352 110.914680,441.492310 
	C115.802734,442.910828 120.750046,443.000671 125.715416,441.782898 
	C128.285187,441.152679 130.253601,439.790131 131.474548,437.408264 
	C134.037018,432.409271 132.879593,430.430084 127.338234,430.356262 
	C126.006828,430.338531 124.666138,430.242920 123.345284,430.359497 
	C119.926758,430.661316 118.606712,429.235901 118.625534,425.754730 
	C118.644081,422.324860 119.462608,420.438019 123.357338,420.546478 
	C128.508377,420.689911 133.672318,420.491150 138.827164,420.327545 
	C141.634995,420.238495 143.271088,421.110291 143.243042,424.240448 
	C143.193756,429.738068 143.319916,435.240387 141.228882,440.883087 
z"/>
<path fill="#000000" opacity="1.000000" stroke="none" 
	d="
M159.643066,400.193176 
	C167.189880,397.976166 174.479309,398.121643 181.731049,399.249542 
	C191.157043,400.715637 196.335770,406.708099 197.846344,415.840637 
	C198.907455,422.255829 198.932037,428.799408 197.778885,435.203827 
	C196.002487,445.069702 190.974075,450.119080 181.132858,451.880737 
	C175.563599,452.877747 169.829514,452.793396 164.250061,451.934082 
	C154.843658,450.485443 148.945679,444.978699 147.363403,435.459900 
	C146.158417,428.210785 146.024063,420.890564 147.755463,413.686157 
	C149.284531,407.323700 152.846985,402.562164 159.643066,400.193176 
M160.251801,439.239655 
	C161.542938,439.978516 162.762299,440.907379 164.136444,441.426544 
	C176.414963,446.065582 187.253021,440.919586 188.513016,429.790924 
	C188.999695,425.492432 188.824600,421.167023 187.668304,416.930450 
	C186.208206,411.580780 182.985992,408.672363 176.805939,408.471313 
	C170.155670,408.255005 162.895630,406.856384 158.423431,414.090027 
	C158.337173,414.229553 158.266281,414.388977 158.231644,414.548523 
	C156.454575,422.737061 155.254745,430.890961 160.251801,439.239655 
z"/>
<path fill="#000000" opacity="1.000000" stroke="none" 
	d="
M331.154358,399.348114 
	C339.680847,400.868378 344.494812,405.689087 346.500519,413.600067 
	C348.593201,421.854034 348.469208,430.086700 346.223816,438.230896 
	C344.299469,445.210693 339.637848,449.596283 332.551117,451.360565 
	C326.308502,452.914764 319.927460,452.907837 313.729279,451.871521 
	C301.741364,449.867218 296.697418,443.139191 295.838806,429.130981 
	C295.563324,424.636749 295.843292,420.172241 296.699982,415.727264 
	C298.643585,405.642548 304.098511,400.079834 314.349457,398.895966 
	C319.758270,398.271271 325.298035,398.114349 331.154358,399.348114 
M314.021179,441.695221 
	C317.559509,443.058167 321.260162,442.734802 324.892670,442.531799 
	C333.608307,442.044678 337.415802,438.062073 337.731903,429.253448 
	C337.845123,426.098114 337.852295,422.922455 337.633087,419.775208 
	C337.194580,413.480438 334.638031,410.290375 328.541992,408.924438 
	C323.818268,407.865967 318.995056,407.906342 314.222778,409.067535 
	C309.374420,410.247253 307.010254,413.515900 306.324585,418.231689 
	C306.037445,420.206573 305.581696,422.209412 305.672729,424.177795 
	C306.090515,433.211334 306.126038,439.109131 314.021179,441.695221 
z"/>
<path fill="#000000" opacity="1.000000" stroke="none" 
	d="
M462.944275,440.511444 
	C471.092224,441.821838 479.063995,441.733002 487.007019,441.435211 
	C490.928833,441.288147 491.917419,442.916046 491.941010,446.379700 
	C491.964874,449.886261 490.801666,451.516724 487.007599,451.448212 
	C477.184937,451.270782 467.355042,451.281677 457.531982,451.448151 
	C453.801727,451.511383 452.624786,450.047272 452.658783,446.435333 
	C452.790344,432.447235 452.789795,418.456146 452.637451,404.468323 
	C452.595520,400.619293 453.787109,399.210052 457.825714,399.317291 
	C467.305145,399.569031 476.797455,399.338196 486.284546,399.296631 
	C488.993073,399.284760 491.949890,398.896118 491.671570,403.105103 
	C491.455566,406.371674 492.000031,409.818146 486.622986,409.450562 
	C480.158112,409.008667 473.635101,409.497162 467.146820,409.287109 
	C463.298828,409.162537 462.250275,410.878418 462.334625,414.394196 
	C462.414276,417.714020 461.994934,420.814178 466.968231,420.535767 
	C471.445892,420.285095 475.955658,420.674957 480.447418,420.586792 
	C484.122803,420.514648 484.282593,422.807007 484.306610,425.527924 
	C484.331573,428.353790 483.885376,430.477966 480.311707,430.363739 
	C476.485504,430.241394 472.651794,430.339233 468.821472,430.361511 
	C462.488708,430.398376 462.360229,430.517517 462.405457,436.764252 
	C462.413788,437.917633 462.610229,439.069641 462.944275,440.511444 
z"/>
<path fill="#000000" opacity="1.000000" stroke="none" 
	d="
M536.675537,438.566223 
	C539.156555,440.280365 543.128967,440.748016 542.698853,444.090179 
	C542.309998,447.112000 539.153137,448.880402 536.335022,449.923553 
	C526.641418,453.511719 516.767212,453.592285 507.071106,450.128448 
	C501.334808,448.079224 498.166840,443.341217 496.639313,437.567963 
	C494.371826,428.997925 494.521088,420.419250 497.118835,411.955414 
	C499.074066,405.585022 503.396820,401.365875 509.872955,399.785370 
	C517.739502,397.865509 525.696533,397.950378 533.551880,399.957184 
	C536.099854,400.608124 538.594971,401.659943 540.222290,403.941254 
	C537.528381,410.524475 535.945374,411.364197 529.712585,409.354248 
	C525.152405,407.883698 520.470642,408.011475 515.872742,408.604126 
	C509.937775,409.369110 507.380035,412.213074 506.055664,418.225311 
	C505.038177,422.844421 504.958282,427.447296 505.922516,432.071686 
	C507.426147,439.283142 510.398346,441.778381 517.712158,442.579620 
	C524.431946,443.315704 530.472290,441.413269 536.675537,438.566223 
z"/>
<path fill="#000000" opacity="1.000000" stroke="none" 
	d="
M253.310516,446.714417 
	C246.293549,438.705963 246.116470,429.288361 247.155197,419.979370 
	C248.922440,404.141418 255.559326,398.694824 271.538330,398.611786 
	C276.885101,398.584015 282.257568,398.460114 287.175629,400.870300 
	C289.137878,401.831879 292.953979,402.507172 291.052704,405.822784 
	C289.543121,408.455353 287.870392,412.500122 283.003204,410.025513 
	C278.044128,407.504150 272.565063,407.936340 267.308838,408.630524 
	C260.696442,409.503815 257.791656,412.889954 257.308716,419.697418 
	C257.038666,423.503967 257.066437,427.358093 257.308807,431.168640 
	C257.727692,437.753723 260.772156,441.343781 267.361969,442.239777 
	C273.466827,443.069824 279.649261,443.200714 285.159607,439.399445 
	C289.085571,436.691162 291.651947,440.139801 293.576385,442.300842 
	C295.961700,444.979309 292.749451,446.704865 290.890594,448.061066 
	C281.947906,454.585663 262.874298,453.955994 253.310516,446.714417 
z"/>
<path fill="#000000" opacity="1.000000" stroke="none" 
	d="
M209.128662,429.773743 
	C205.327805,419.834045 201.677887,410.253143 198.000793,400.600922 
	C207.029678,398.324280 208.194550,398.884216 211.065323,406.348969 
	C214.819839,416.111603 218.573807,425.874451 222.465744,435.995361 
	C224.648315,434.760590 224.875687,432.846863 225.486557,431.302826 
	C228.791168,422.949951 231.985428,414.553528 235.236465,406.179382 
	C238.101105,398.800568 238.723679,398.505463 247.211288,400.352783 
	C248.073807,402.064728 247.086899,403.539215 246.509094,405.043732 
	C241.141388,419.020538 235.576736,432.925690 230.484726,447.001953 
	C228.971436,451.185303 226.313965,451.351105 222.796844,451.426605 
	C219.243683,451.502899 216.844589,450.755676 215.610916,446.943146 
	C213.769562,441.252533 211.415543,435.727814 209.128662,429.773743 
z"/>
<path fill="#000000" opacity="1.000000" stroke="none" 
	d="
M570.173889,432.998840 
	C570.166626,437.998138 570.062378,442.500397 570.180786,446.996796 
	C570.289551,451.125397 567.748657,451.343567 564.599792,451.400696 
	C561.255066,451.461365 559.740967,450.323242 559.783264,446.797119 
	C559.909119,436.299103 559.657715,425.794373 559.917419,415.301270 
	C560.027832,410.839386 558.808167,408.632141 554.038696,409.307007 
	C552.567749,409.515198 551.033264,409.234802 549.545410,409.370850 
	C545.660950,409.726013 543.746582,408.500458 543.781616,404.127838 
	C543.817871,399.589600 546.384766,399.565765 549.655701,399.581879 
	C560.321167,399.634521 570.988831,399.644714 581.652283,399.467102 
	C584.927979,399.412567 586.184692,400.656769 586.135254,403.830078 
	C586.087097,406.917145 585.882996,409.252991 581.705261,409.418304 
	C570.148865,409.875580 570.153931,410.031097 570.158325,421.499786 
	C570.159668,425.166290 570.168518,428.832764 570.173889,432.998840 
z"/>
<path fill="#000000" opacity="1.000000" stroke="none" 
	d="
M384.239685,175.235809 
	C383.224213,170.094620 386.472839,167.627518 390.286072,165.388062 
	C383.806091,163.505142 379.088165,170.314224 372.444824,168.041336 
	C369.223022,162.811890 369.587311,159.998428 373.397095,157.218872 
	C377.539490,154.196609 381.142365,154.432663 384.944031,157.975311 
	C387.865570,160.697830 393.029816,160.527267 397.788574,157.279205 
	C397.989685,157.000656 397.957611,157.022247 397.957611,157.022247 
	C399.516602,156.085083 401.073578,155.144592 402.635193,154.211838 
	C403.852203,153.484879 405.213196,152.961090 406.218262,154.300812 
	C407.224274,155.641785 406.356750,156.906311 405.304840,157.783142 
	C402.377319,160.223419 399.363739,162.560425 396.031036,165.220047 
	C399.863861,167.624451 401.247162,170.746475 398.743195,174.866562 
	C397.940643,176.187103 398.586975,177.428741 399.463287,178.535217 
	C400.601196,179.971985 401.585846,181.559464 402.875549,182.841583 
	C408.313446,188.247467 411.186676,194.270752 408.451813,202.090469 
	C407.618530,204.473068 408.392273,206.562912 410.848541,208.002151 
	C412.238312,208.816467 413.250488,210.279602 414.422058,211.461105 
	C421.802124,218.904083 433.535675,216.557816 438.395325,206.403656 
	C435.268860,204.452911 433.227539,206.115234 432.120148,208.692734 
	C429.945496,213.754272 426.647888,213.711716 422.530640,211.452332 
	C421.802582,211.052811 421.025024,210.738220 420.255768,210.419617 
	C405.859894,204.457794 410.694397,206.787140 410.973297,192.663895 
	C410.985840,192.028198 411.222229,191.327805 411.554810,190.779022 
	C413.360840,187.798950 424.007874,187.782974 425.507874,190.920090 
	C426.607147,193.219131 428.071808,196.187714 425.325928,198.220505 
	C422.075806,200.626572 420.898773,196.931885 419.074402,195.289200 
	C417.083008,201.396164 417.741760,203.227859 422.255341,205.458054 
	C424.960266,206.794586 426.971741,207.031158 427.896393,203.469406 
	C428.641235,200.600571 430.699677,199.578491 433.558319,199.688431 
	C436.053772,199.784424 438.556458,199.677338 441.055786,199.691681 
	C442.866821,199.702072 445.003204,199.328949 445.883636,201.406494 
	C446.805695,203.582367 446.973785,205.848480 445.468140,208.059219 
	C439.025879,217.518494 429.063599,220.537354 418.694000,222.786850 
	C416.577209,223.246048 415.385010,221.661926 414.265228,220.141312 
	C411.429047,216.289795 409.162201,212.037109 404.488342,209.728348 
	C401.818451,208.409485 402.699768,205.289780 402.998779,202.873886 
	C404.301636,192.347198 398.606659,182.686111 388.540375,178.309814 
	C387.060730,177.666534 385.841644,176.423920 384.239685,175.235809 
z"/>
<path fill="#000000" opacity="1.000000" stroke="none" 
	d="
M274.174866,211.331299 
	C278.405182,209.233032 279.734497,205.995132 279.777374,201.774445 
	C279.873138,192.354080 283.051758,184.403214 290.615387,178.202362 
	C297.169434,172.829239 303.476593,167.092972 309.414368,161.047226 
	C315.637512,154.710938 323.929474,153.239136 331.684814,150.474228 
	C334.106995,149.610687 336.500061,151.417252 338.939972,151.843430 
	C345.204865,152.937698 351.005463,158.128510 357.867249,152.999756 
	C357.825714,158.400497 354.740814,160.870346 350.147797,159.908386 
	C347.549896,159.364334 344.963318,158.627563 342.482941,157.684738 
	C330.738617,153.220459 320.772797,156.415665 311.858490,164.532043 
	C304.967377,170.806305 297.945587,176.940186 291.155640,183.321335 
	C286.616150,187.587540 285.603210,193.427094 285.258820,199.286606 
	C284.577881,210.872757 283.027313,212.637863 272.199615,216.226944 
	C261.563141,219.752625 250.082138,221.430359 241.378265,229.568756 
	C239.430252,231.390228 237.182968,232.700150 236.968887,235.807877 
	C236.886414,237.004944 235.998917,238.322388 235.126068,239.255600 
	C232.679840,241.871017 229.621292,243.078156 226.100479,241.828064 
	C223.852936,241.030060 222.656967,239.185226 222.914154,236.730530 
	C223.281921,233.220383 225.331680,230.228760 228.607483,229.975494 
	C235.295303,229.458466 239.692627,225.121521 244.719162,221.766647 
	C246.696579,220.446854 248.831848,219.599945 251.044678,218.877441 
	C258.634888,216.399216 266.233704,213.947266 274.174866,211.331299 
z"/>
<path fill="#000000" opacity="1.000000" stroke="none" 
	d="
M371.174408,221.933685 
	C372.681396,226.764709 374.227020,231.173569 375.437531,235.672577 
	C377.080170,241.777832 379.277618,247.302887 385.559387,250.239456 
	C387.768921,251.272369 388.628418,253.359970 386.851471,255.628571 
	C385.105682,257.857269 383.444824,256.701111 381.705231,255.435211 
	C376.745483,251.826019 373.028687,247.595871 371.330627,241.337524 
	C368.674408,231.547867 365.014587,222.034882 362.154755,212.294647 
	C360.200165,205.637482 355.485779,202.659836 349.290894,201.336258 
	C346.042419,200.642181 342.692963,200.433563 339.409332,199.884781 
	C338.224457,199.686737 337.140930,199.000412 337.239960,197.566116 
	C337.342834,196.076523 338.543976,195.823746 339.761322,195.713898 
	C349.163635,194.865509 357.591919,196.919800 364.411896,203.892197 
	C365.636108,205.143768 366.184570,206.684555 366.706451,208.264450 
	C368.168518,212.690353 369.612549,217.122192 371.174408,221.933685 
z"/>
<path fill="#000000" opacity="1.000000" stroke="none" 
	d="
M322.986450,165.017136 
	C325.068390,164.861679 327.519989,163.882416 328.786346,166.401840 
	C329.979004,168.774719 327.513458,169.790268 326.462555,171.372421 
	C321.267456,179.193634 314.760468,185.708740 307.829132,192.025497 
	C304.292511,195.248581 304.084198,201.147858 305.172272,205.632278 
	C306.122681,209.549179 309.616669,212.271698 314.665100,212.179535 
	C319.953064,212.083008 322.780334,217.577240 327.723907,218.929153 
	C329.548279,219.428040 328.528961,221.772232 326.779114,222.016586 
	C323.546661,222.467987 320.060272,223.291794 317.272583,220.645172 
	C314.865906,218.360306 312.114624,217.292465 308.800354,216.935974 
	C303.673065,216.384491 298.494690,209.226501 298.607269,204.043671 
	C298.804077,194.984024 301.750061,187.839127 310.000031,182.934021 
	C316.461914,179.092026 320.447174,172.845901 322.931000,165.324127 
	C323.037964,164.969330 323.003021,165.000595 322.986450,165.017136 
z"/>
<path fill="#000000" opacity="1.000000" stroke="none" 
	d="
M282.997742,153.011185 
	C287.049255,151.871964 290.448273,149.380966 294.157654,147.515533 
	C295.849091,146.664917 297.487610,145.044662 299.661133,146.653305 
	C300.257233,149.382965 298.018463,150.151093 296.368683,150.913025 
	C286.869751,155.300110 279.449890,161.952026 274.001404,170.848831 
	C272.531403,173.249222 270.510590,174.785461 267.644836,175.194916 
	C264.921295,175.584030 262.667145,176.920334 260.676422,178.823395 
	C259.794037,179.666916 258.548035,180.048569 257.603149,178.861679 
	C256.870270,177.941086 257.320831,176.900497 257.976990,176.121429 
	C259.914642,173.820908 261.877136,171.302963 265.040802,170.886261 
	C269.142395,170.346008 271.387970,167.806458 273.514862,164.635590 
	C276.184784,160.655197 278.499207,156.322708 282.837158,153.253967 
	C283.036957,152.982574 283.008850,152.999512 282.997742,153.011185 
z"/>
<path fill="#000000" opacity="1.000000" stroke="none" 
	d="
M413.891663,251.843109 
	C417.328918,253.715225 418.970459,256.285309 418.045898,259.828217 
	C417.121063,263.371796 414.546448,265.367828 411.000519,266.131927 
	C407.408752,266.905884 404.306946,265.856323 402.009369,263.122437 
	C399.246216,259.834656 401.482605,254.329575 406.221832,252.150650 
	C408.616425,251.049713 411.028168,250.967377 413.891663,251.843109 
M411.903625,257.246826 
	C409.900665,255.750671 408.250092,255.943893 407.378296,258.426666 
	C406.961792,259.612701 407.521301,260.971893 408.739563,261.158386 
	C411.113647,261.521851 412.349426,260.237061 411.903625,257.246826 
z"/>
<path fill="#000000" opacity="1.000000" stroke="none" 
	d="
M423.698212,167.293640 
	C428.064606,166.381210 431.470856,167.333603 433.294556,171.156921 
	C434.643372,173.984726 433.045837,176.377457 430.901367,178.135483 
	C427.513275,180.912933 423.572083,181.383865 419.745117,179.347717 
	C416.272430,177.500061 416.069427,173.741943 418.830719,170.434448 
	C420.040344,168.985565 421.563965,168.040939 423.698212,167.293640 
M425.490479,175.614258 
	C427.006927,175.078262 428.353607,174.293381 426.845581,172.604980 
	C426.040710,171.703857 424.557190,171.923370 423.761597,172.751251 
	C422.350189,174.219955 422.765076,175.336151 425.490479,175.614258 
z"/>
<path fill="#000000" opacity="1.000000" stroke="none" 
	d="
M346.172638,187.653564 
	C356.121063,187.858612 364.168335,191.882523 370.813446,198.813675 
	C371.877899,199.923950 371.566711,201.289825 370.484375,202.382660 
	C369.228943,203.650284 367.567596,203.880081 366.478302,202.642670 
	C361.314392,196.776718 354.429901,194.046677 347.336334,191.561279 
	C345.780609,191.016220 345.050293,189.656357 346.172638,187.653564 
z"/>
<path fill="#000000" opacity="1.000000" stroke="none" 
	d="
M316.083984,135.026886 
	C319.240417,133.436752 322.054230,131.991699 324.884460,130.579575 
	C326.955200,129.546402 329.098602,129.786621 331.228760,130.354736 
	C332.597534,130.719803 333.834045,131.357559 333.530060,133.059204 
	C333.287109,134.418900 332.123413,134.924881 330.894073,134.877853 
	C322.129852,134.542603 315.795227,140.123917 308.789337,143.998886 
	C307.039337,144.966827 305.665161,146.637497 303.448608,145.422195 
	C302.505280,144.904999 301.951416,144.005707 302.265839,142.918365 
	C302.839264,140.935562 304.482697,140.314514 306.277496,139.609344 
	C309.514099,138.337662 312.599701,136.681625 316.083984,135.026886 
z"/>
<path fill="#000000" opacity="1.000000" stroke="none" 
	d="
M255.655380,206.442093 
	C253.067917,200.574570 257.475281,194.367920 263.407959,194.865311 
	C267.160553,195.179916 269.384277,198.534775 268.112122,201.962341 
	C266.324097,206.779831 260.807281,208.935745 255.655380,206.442093 
z"/>
<path fill="#000000" opacity="1.000000" stroke="none" 
	d="
M384.699768,244.293091 
	C382.051544,240.690277 380.627441,236.637161 376.986389,234.199646 
	C375.630890,233.292206 375.461609,231.666092 376.170441,230.146179 
	C376.955261,228.463318 378.377136,227.751007 380.198486,227.783966 
	C381.847412,227.813766 383.394928,228.469101 383.624603,230.100967 
	C384.381348,235.477844 388.123840,239.242676 390.576965,243.700226 
	C391.581116,245.524902 393.550171,247.641830 391.045074,249.363708 
	C388.347229,251.218079 387.432373,248.354538 386.233185,246.700134 
	C385.746979,246.029373 385.329071,245.309143 384.699768,244.293091 
z"/>
<path fill="#000000" opacity="1.000000" stroke="none" 
	d="
M335.084473,235.770386 
	C334.283875,232.662888 333.932739,229.842087 332.116241,227.488861 
	C331.075867,226.141083 331.333679,224.632446 332.426239,223.362885 
	C333.619232,221.976639 335.161041,221.462448 336.920502,222.058670 
	C338.557343,222.613327 339.237000,223.931686 339.134644,225.573395 
	C338.940735,228.682693 340.286377,231.416031 341.102448,234.282532 
	C341.772095,236.634796 343.272461,239.536545 339.827332,240.633560 
	C336.308838,241.753967 336.055084,238.390701 335.084473,235.770386 
z"/>
<path fill="#000000" opacity="1.000000" stroke="none" 
	d="
M344.022400,174.007629 
	C340.780090,172.083664 337.520233,172.195724 334.106934,173.725220 
	C332.646210,174.379776 330.655396,174.935532 329.851227,172.832764 
	C329.031250,170.688660 331.023163,170.150925 332.444305,169.342102 
	C336.628815,166.960464 340.894592,167.068924 345.305725,168.634766 
	C346.883575,169.194901 348.838806,169.457626 348.769379,171.520187 
	C348.687958,173.939102 346.738281,174.184586 344.375610,174.003693 
	C343.979919,173.978699 344.006592,174.000305 344.022400,174.007629 
z"/>
<path fill="#000000" opacity="1.000000" stroke="none" 
	d="
M398.003479,156.987366 
	C395.926239,157.314072 393.716309,158.007721 392.276855,155.679855 
	C391.625000,154.625626 391.753632,153.442291 392.527832,152.457138 
	C394.036530,150.537231 396.070404,149.899719 398.163483,151.118805 
	C400.778107,152.641647 399.833221,154.611633 398.135956,156.729248 
	C397.957611,157.022247 397.989685,157.000656 398.003479,156.987366 
z"/>
<path fill="#000000" opacity="1.000000" stroke="none" 
	d="
M350.859436,153.068390 
	C348.347778,152.991928 346.837067,152.068558 347.347198,149.748703 
	C347.727448,148.019501 349.212372,147.080490 351.003052,146.894424 
	C352.633392,146.725006 354.125336,147.250488 354.507935,148.924713 
	C355.084534,151.447937 353.257294,152.383804 350.859436,153.068390 
z"/>
<path fill="#000000" opacity="1.000000" stroke="none" 
	d="
M300.215820,218.218506 
	C298.257812,220.156647 296.373383,220.935013 294.355530,219.116318 
	C293.226776,218.099014 293.313049,216.750046 294.134186,215.539932 
	C295.162445,214.024673 296.716309,213.460495 298.437317,213.840012 
	C300.655060,214.329102 301.331146,215.778107 300.215820,218.218506 
z"/>
</svg>